<?xml version="1.0" encoding="UTF-8" standalone="no"?>
<!-- Created with Inkscape (http://www.inkscape.org/) -->

<svg
   width="210mm"
   height="297mm"
   viewBox="0 0 210 297"
   version="1.1"
   id="svg5"
   inkscape:version="1.2 (dc2aedaf03, 2022-05-15)"
   sodipodi:docname="baseicosn.svg"
   xmlns:inkscape="http://www.inkscape.org/namespaces/inkscape"
   xmlns:sodipodi="http://sodipodi.sourceforge.net/DTD/sodipodi-0.dtd"
   xmlns="http://www.w3.org/2000/svg"
   xmlns:svg="http://www.w3.org/2000/svg">
  <sodipodi:namedview
     id="namedview7"
     pagecolor="#ffffff"
     bordercolor="#000000"
     borderopacity="0.25"
     inkscape:showpageshadow="2"
     inkscape:pageopacity="0.0"
     inkscape:pagecheckerboard="0"
     inkscape:deskcolor="#d1d1d1"
     inkscape:document-units="mm"
     showgrid="false"
     inkscape:zoom="1.506826"
     inkscape:cx="226.63532"
     inkscape:cy="118.1291"
     inkscape:window-width="1366"
     inkscape:window-height="705"
     inkscape:window-x="-8"
     inkscape:window-y="-8"
     inkscape:window-maximized="1"
     inkscape:current-layer="layer1" />
  <defs
     id="defs2" />
  <g
     inkscape:label="Camada 1"
     inkscape:groupmode="layer"
     id="layer1">
    <path
       id="path213"
       style="fill:none;stroke:#0756b1;stroke-width:1.34127;stroke-linecap:round;stroke-opacity:1;paint-order:stroke markers fill"
       d="M 16.625859 3.7129517 A 12.485142 12.616835 0 0 0 4.1522013 16.337504 A 12.485142 12.616835 0 0 0 16.640845 28.946554 A 12.485142 12.616835 0 0 0 29.122253 16.329753 L 16.637227 16.329753 L 16.637227 3.7134684 A 12.485142 12.616835 0 0 0 16.625859 3.7129517 z " />
    <path
       id="path1971"
       style="fill:none;stroke:#0756b1;stroke-width:1.29;stroke-linecap:round;stroke-opacity:1;paint-order:stroke markers fill"
       d="m 16.63516,13.215731 a 2.1070781,2.0631804 0 0 0 -2.105298,2.064474 2.1070781,2.0631804 0 0 0 2.107882,2.061889 2.1070781,2.0631804 0 0 0 1.628325,-0.76016 h -1.628842 v -3.366203 a 2.1070781,2.0631804 0 0 0 -0.0021,0 z" />
    <path
       style="fill:none;stroke:#0756b1;stroke-width:1.29;stroke-linecap:round;stroke-opacity:1;paint-order:stroke markers fill"
       id="path1971-2"
       sodipodi:type="arc"
       sodipodi:cx="12.818058"
       sodipodi:cy="8.6039019"
       sodipodi:rx="2.1070781"
       sodipodi:ry="2.0631804"
       sodipodi:start="0"
       sodipodi:end="6.2819619"
       sodipodi:open="true"
       sodipodi:arc-type="arc"
       d="M 14.925136,8.6039019 A 2.1070781,2.0631804 0 0 1 12.818702,10.667082 2.1070781,2.0631804 0 0 1 10.71098,8.6051639 2.1070781,2.0631804 0 0 1 12.816125,6.5407223 2.1070781,2.0631804 0 0 1 14.925135,8.6013778" />
    <path
       style="fill:none;stroke:#0756b1;stroke-width:1.29;stroke-linecap:round;stroke-opacity:1;paint-order:stroke markers fill"
       id="path1971-2-6"
       sodipodi:type="arc"
       sodipodi:cx="40.122276"
       sodipodi:cy="9.2184668"
       sodipodi:rx="2.1070781"
       sodipodi:ry="2.0631804"
       sodipodi:start="0"
       sodipodi:end="6.2819619"
       sodipodi:open="true"
       sodipodi:arc-type="arc"
       d="m 42.229354,9.2184668 a 2.1070781,2.0631804 0 0 1 -2.106433,2.0631802 2.1070781,2.0631804 0 0 1 -2.107722,-2.0619182 2.1070781,2.0631804 0 0 1 2.105144,-2.0644416 2.1070781,2.0631804 0 0 1 2.10901,2.0606554"
       inkscape:export-filename="pizza.svg"
       inkscape:export-xdpi="96"
       inkscape:export-ydpi="96" />
    <path
       style="fill:none;stroke:#0756b1;stroke-width:1.29;stroke-linecap:round;stroke-opacity:1;paint-order:stroke markers fill"
       id="path1971-2-2"
       sodipodi:type="arc"
       sodipodi:cx="39.419914"
       sodipodi:cy="21.172037"
       sodipodi:rx="2.1070781"
       sodipodi:ry="2.0631804"
       sodipodi:start="0"
       sodipodi:end="6.2819619"
       sodipodi:open="true"
       sodipodi:arc-type="arc"
       d="m 41.526992,21.172037 a 2.1070781,2.0631804 0 0 1 -2.106433,2.06318 2.1070781,2.0631804 0 0 1 -2.107722,-2.061918 2.1070781,2.0631804 0 0 1 2.105144,-2.064441 2.1070781,2.0631804 0 0 1 2.10901,2.060655" />
    <path
       style="fill:none;stroke:#0756b1;stroke-width:1.29;stroke-linecap:round;stroke-opacity:1;paint-order:stroke markers fill"
       id="path1971-2-5"
       sodipodi:type="arc"
       sodipodi:cx="46.882484"
       sodipodi:cy="23.880219"
       sodipodi:rx="2.1070781"
       sodipodi:ry="2.0631804"
       sodipodi:start="0"
       sodipodi:end="6.2819619"
       sodipodi:open="true"
       sodipodi:arc-type="arc"
       d="m 48.989563,23.880219 a 2.1070781,2.0631804 0 0 1 -2.106434,2.06318 2.1070781,2.0631804 0 0 1 -2.107722,-2.061918 2.1070781,2.0631804 0 0 1 2.105144,-2.064442 2.1070781,2.0631804 0 0 1 2.10901,2.060655" />
    <path
       style="fill:none;stroke:#0756b1;stroke-width:1.29;stroke-linecap:round;stroke-opacity:1;paint-order:stroke markers fill"
       id="path1971-2-7"
       sodipodi:type="arc"
       sodipodi:cx="52.940334"
       sodipodi:cy="19.490473"
       sodipodi:rx="2.1070781"
       sodipodi:ry="2.0631804"
       sodipodi:start="0"
       sodipodi:end="6.2819619"
       sodipodi:open="true"
       sodipodi:arc-type="arc"
       d="m 55.047412,19.490473 a 2.1070781,2.0631804 0 0 1 -2.106433,2.06318 2.1070781,2.0631804 0 0 1 -2.107722,-2.061918 2.1070781,2.0631804 0 0 1 2.105144,-2.064442 2.1070781,2.0631804 0 0 1 2.10901,2.060656" />
    <path
       style="fill:none;stroke:#0756b1;stroke-width:1.29;stroke-linecap:round;stroke-opacity:1;paint-order:stroke markers fill"
       id="path1971-2-21"
       sodipodi:type="arc"
       sodipodi:cx="47.584846"
       sodipodi:cy="7.6381578"
       sodipodi:rx="2.1070781"
       sodipodi:ry="2.0631804"
       sodipodi:start="0"
       sodipodi:end="6.2819619"
       sodipodi:open="true"
       sodipodi:arc-type="arc"
       d="m 49.691925,7.6381578 a 2.1070781,2.0631804 0 0 1 -2.106434,2.0631804 2.1070781,2.0631804 0 0 1 -2.107722,-2.0619183 2.1070781,2.0631804 0 0 1 2.105144,-2.0644416 2.1070781,2.0631804 0 0 1 2.10901,2.0606554" />
    <path
       style="fill:none;stroke:#0756b1;stroke-width:1.29;stroke-linecap:round;stroke-opacity:1;paint-order:stroke markers fill"
       id="path1971-25"
       sodipodi:type="arc"
       sodipodi:cx="8.7794914"
       sodipodi:cy="16.053009"
       sodipodi:rx="2.1070781"
       sodipodi:ry="2.0631804"
       sodipodi:start="0"
       sodipodi:end="6.2819619"
       sodipodi:open="true"
       sodipodi:arc-type="arc"
       d="m 10.886569,16.053009 a 2.1070781,2.0631804 0 0 1 -2.1064331,2.06318 2.1070781,2.0631804 0 0 1 -2.1077222,-2.061918 2.1070781,2.0631804 0 0 1 2.1051444,-2.064442 2.1070781,2.0631804 0 0 1 2.1090099,2.060656" />
    <path
       style="fill:none;stroke:#0756b1;stroke-width:1.29;stroke-linecap:round;stroke-opacity:1;paint-order:stroke markers fill"
       id="path1971-5"
       sodipodi:type="arc"
       sodipodi:cx="12.554673"
       sodipodi:cy="22.914474"
       sodipodi:rx="2.1070781"
       sodipodi:ry="2.0631804"
       sodipodi:start="0"
       sodipodi:end="6.2819619"
       sodipodi:open="true"
       sodipodi:arc-type="arc"
       d="m 14.661751,22.914474 a 2.1070781,2.0631804 0 0 1 -2.106433,2.063181 2.1070781,2.0631804 0 0 1 -2.107722,-2.061918 2.1070781,2.0631804 0 0 1 2.105144,-2.064442 2.1070781,2.0631804 0 0 1 2.10901,2.060655" />
    <path
       style="fill:none;stroke:#0756b1;stroke-width:1.29;stroke-linecap:round;stroke-opacity:1;paint-order:stroke markers fill"
       id="path1971-4"
       sodipodi:type="arc"
       sodipodi:cx="20.574448"
       sodipodi:cy="22.4755"
       sodipodi:rx="2.1070781"
       sodipodi:ry="2.0631804"
       sodipodi:start="0"
       sodipodi:end="6.2819619"
       sodipodi:open="true"
       sodipodi:arc-type="arc"
       d="m 22.681526,22.4755 a 2.1070781,2.0631804 0 0 1 -2.106434,2.06318 2.1070781,2.0631804 0 0 1 -2.107722,-2.061918 2.1070781,2.0631804 0 0 1 2.105144,-2.064441 2.1070781,2.0631804 0 0 1 2.10901,2.060655" />
    <path
       style="fill:none;stroke:#0756b1;stroke-width:1.9651;stroke-linecap:round;stroke-opacity:1;paint-order:stroke markers fill"
       id="path2150"
       sodipodi:type="arc"
       sodipodi:cx="45.173233"
       sodipodi:cy="16.321463"
       sodipodi:rx="12.170452"
       sodipodi:ry="13.507865"
       sodipodi:start="0"
       sodipodi:end="5.5367785"
       sodipodi:arc-type="slice"
       d="M 57.343685,16.321463 A 12.170452,13.507865 0 0 1 47.431103,29.594836 12.170452,13.507865 0 0 1 33.840544,21.246433 12.170452,13.507865 0 0 1 38.710467,4.8754568 12.170452,13.507865 0 0 1 54.107968,7.1495512 l -8.934735,9.1719118 z" />
    <path
       style="fill:none;stroke:#0756b1;stroke-width:1.29;stroke-linecap:round;stroke-opacity:1;paint-order:stroke markers fill"
       d="M 79.893376,7.6381577 72.518602,26.5884 94.64292,22.198653 C 93.967997,11.472181 89.180387,7.515746 79.893376,7.6381577 Z"
       id="path2331"
       sodipodi:nodetypes="cccc"
       inkscape:export-filename="pizzasplice.svg"
       inkscape:export-xdpi="96"
       inkscape:export-ydpi="96" />
    <path
       style="fill:none;stroke:#0756b1;stroke-width:1.29;stroke-linecap:round;stroke-opacity:1;paint-order:stroke markers fill"
       d="M 78.664246,11.926647 C 89.139081,8.6522114 91.363889,22.107174 91.306715,22.198653"
       id="path2429"
       sodipodi:nodetypes="cc" />
    <path
       style="fill:none;stroke:#0756b1;stroke-width:1.29;stroke-linecap:round;stroke-opacity:1;paint-order:stroke markers fill"
       id="path1971-2-68"
       sodipodi:type="arc"
       sodipodi:cx="77.43512"
       sodipodi:cy="22.198654"
       sodipodi:rx="2.1070781"
       sodipodi:ry="2.0631804"
       sodipodi:start="0"
       sodipodi:end="6.2819619"
       sodipodi:open="true"
       sodipodi:arc-type="arc"
       d="m 79.542198,22.198654 a 2.1070781,2.0631804 0 0 1 -2.106434,2.063181 2.1070781,2.0631804 0 0 1 -2.107722,-2.061919 2.1070781,2.0631804 0 0 1 2.105144,-2.064441 2.1070781,2.0631804 0 0 1 2.10901,2.060655" />
    <path
       style="fill:none;stroke:#0756b1;stroke-width:1.29;stroke-linecap:round;stroke-opacity:1;paint-order:stroke markers fill"
       id="path1971-2-1"
       sodipodi:type="arc"
       sodipodi:cx="86.214607"
       sodipodi:cy="19.139292"
       sodipodi:rx="2.1070781"
       sodipodi:ry="2.0631804"
       sodipodi:start="0"
       sodipodi:end="6.2819619"
       sodipodi:open="true"
       sodipodi:arc-type="arc"
       d="m 88.321685,19.139292 a 2.1070781,2.0631804 0 0 1 -2.106433,2.06318 2.1070781,2.0631804 0 0 1 -2.107722,-2.061918 2.1070781,2.0631804 0 0 1 2.105144,-2.064442 2.1070781,2.0631804 0 0 1 2.10901,2.060656" />
    <path
       style="fill:none;stroke:#0756b1;stroke-width:1.29;stroke-linecap:round;stroke-opacity:1;paint-order:stroke markers fill"
       id="path1971-2-3"
       sodipodi:type="arc"
       sodipodi:cx="80.187195"
       sodipodi:cy="15.232261"
       sodipodi:rx="2.1070781"
       sodipodi:ry="2.0631804"
       sodipodi:start="0"
       sodipodi:end="6.2819619"
       sodipodi:open="true"
       sodipodi:arc-type="arc"
       d="m 82.294273,15.232261 a 2.1070781,2.0631804 0 0 1 -2.106434,2.06318 2.1070781,2.0631804 0 0 1 -2.107722,-2.061918 2.1070781,2.0631804 0 0 1 2.105144,-2.064442 2.1070781,2.0631804 0 0 1 2.10901,2.060656" />
  </g>
</svg>
