<?xml version="1.0" encoding="UTF-8" standalone="no"?>
<!-- Created with Inkscape (http://www.inkscape.org/) -->

<svg
   width="26.311321mm"
   height="28.964283mm"
   viewBox="0 0 26.311321 28.964283"
   version="1.1"
   id="svg5"
   sodipodi:docname="pizza.svg"
   inkscape:version="1.2 (dc2aedaf03, 2022-05-15)"
   xmlns:inkscape="http://www.inkscape.org/namespaces/inkscape"
   xmlns:sodipodi="http://sodipodi.sourceforge.net/DTD/sodipodi-0.dtd"
   xmlns="http://www.w3.org/2000/svg"
   xmlns:svg="http://www.w3.org/2000/svg">
  <sodipodi:namedview
     id="namedview7"
     pagecolor="#ffffff"
     bordercolor="#000000"
     borderopacity="0.25"
     inkscape:showpageshadow="2"
     inkscape:pageopacity="0.0"
     inkscape:pagecheckerboard="0"
     inkscape:deskcolor="#d1d1d1"
     inkscape:document-units="mm"
     showgrid="false"
     inkscape:zoom="4.8231817"
     inkscape:cx="49.034022"
     inkscape:cy="54.735653"
     inkscape:window-width="1366"
     inkscape:window-height="705"
     inkscape:window-x="-8"
     inkscape:window-y="-8"
     inkscape:window-maximized="1"
     inkscape:current-layer="layer1" />
  <defs
     id="defs2" />
  <g
     inkscape:label="Camada 1"
     inkscape:groupmode="layer"
     id="layer1"
     transform="translate(-32.014916,-1.8476051)">
    <path
       style="fill:none;stroke:#ffcd00;stroke-width:1.29;stroke-linecap:round;stroke-opacity:1;paint-order:stroke markers fill"
       id="path1971-2-6"
       sodipodi:type="arc"
       sodipodi:cx="40.122276"
       sodipodi:cy="9.2184668"
       sodipodi:rx="2.1070781"
       sodipodi:ry="2.0631804"
       sodipodi:start="0"
       sodipodi:end="6.2819619"
       sodipodi:open="true"
       sodipodi:arc-type="arc"
       d="m 42.229354,9.2184668 a 2.1070781,2.0631804 0 0 1 -2.106433,2.0631802 2.1070781,2.0631804 0 0 1 -2.107722,-2.0619182 2.1070781,2.0631804 0 0 1 2.105144,-2.0644416 2.1070781,2.0631804 0 0 1 2.10901,2.0606554" />
    <path
       style="fill:none;stroke:#ffcd00;stroke-width:1.29;stroke-linecap:round;stroke-opacity:1;paint-order:stroke markers fill"
       id="path1971-2-2"
       sodipodi:type="arc"
       sodipodi:cx="39.419914"
       sodipodi:cy="21.172037"
       sodipodi:rx="2.1070781"
       sodipodi:ry="2.0631804"
       sodipodi:start="0"
       sodipodi:end="6.2819619"
       sodipodi:open="true"
       sodipodi:arc-type="arc"
       d="m 41.526992,21.172037 a 2.1070781,2.0631804 0 0 1 -2.106433,2.06318 2.1070781,2.0631804 0 0 1 -2.107722,-2.061918 2.1070781,2.0631804 0 0 1 2.105144,-2.064441 2.1070781,2.0631804 0 0 1 2.10901,2.060655" />
    <path
       style="fill:none;stroke:#ffcd00;stroke-width:1.29;stroke-linecap:round;stroke-opacity:1;paint-order:stroke markers fill"
       id="path1971-2-5"
       sodipodi:type="arc"
       sodipodi:cx="46.882484"
       sodipodi:cy="23.880219"
       sodipodi:rx="2.1070781"
       sodipodi:ry="2.0631804"
       sodipodi:start="0"
       sodipodi:end="6.2819619"
       sodipodi:open="true"
       sodipodi:arc-type="arc"
       d="m 48.989563,23.880219 a 2.1070781,2.0631804 0 0 1 -2.106434,2.06318 2.1070781,2.0631804 0 0 1 -2.107722,-2.061918 2.1070781,2.0631804 0 0 1 2.105144,-2.064442 2.1070781,2.0631804 0 0 1 2.10901,2.060655" />
    <path
       style="fill:none;stroke:#ffcd00;stroke-width:1.29;stroke-linecap:round;stroke-opacity:1;paint-order:stroke markers fill"
       id="path1971-2-7"
       sodipodi:type="arc"
       sodipodi:cx="52.940334"
       sodipodi:cy="19.490473"
       sodipodi:rx="2.1070781"
       sodipodi:ry="2.0631804"
       sodipodi:start="0"
       sodipodi:end="6.2819619"
       sodipodi:open="true"
       sodipodi:arc-type="arc"
       d="m 55.047412,19.490473 a 2.1070781,2.0631804 0 0 1 -2.106433,2.06318 2.1070781,2.0631804 0 0 1 -2.107722,-2.061918 2.1070781,2.0631804 0 0 1 2.105144,-2.064442 2.1070781,2.0631804 0 0 1 2.10901,2.060656" />
    <path
       style="fill:none;stroke:#ffcd00;stroke-width:1.29;stroke-linecap:round;stroke-opacity:1;paint-order:stroke markers fill"
       id="path1971-2-21"
       sodipodi:type="arc"
       sodipodi:cx="47.584846"
       sodipodi:cy="7.6381578"
       sodipodi:rx="2.1070781"
       sodipodi:ry="2.0631804"
       sodipodi:start="0"
       sodipodi:end="6.2819619"
       sodipodi:open="true"
       sodipodi:arc-type="arc"
       d="m 49.691925,7.6381578 a 2.1070781,2.0631804 0 0 1 -2.106434,2.0631804 2.1070781,2.0631804 0 0 1 -2.107722,-2.0619183 2.1070781,2.0631804 0 0 1 2.105144,-2.0644416 2.1070781,2.0631804 0 0 1 2.10901,2.0606554" />
    <path
       style="fill:none;stroke:#ffcd00;stroke-width:1.9651;stroke-linecap:round;stroke-opacity:1;paint-order:stroke markers fill"
       id="path2150"
       sodipodi:type="arc"
       sodipodi:cx="45.173233"
       sodipodi:cy="16.321463"
       sodipodi:rx="12.170452"
       sodipodi:ry="13.507865"
       sodipodi:start="0"
       sodipodi:end="5.5367785"
       sodipodi:arc-type="slice"
       d="M 57.343685,16.321463 A 12.170452,13.507865 0 0 1 47.431103,29.594836 12.170452,13.507865 0 0 1 33.840544,21.246433 12.170452,13.507865 0 0 1 38.710467,4.8754568 12.170452,13.507865 0 0 1 54.107968,7.1495512 l -8.934735,9.1719118 z" />
  </g>
</svg>
